<svg width="400" height="165" viewBox="0 0 400 165" fill="none" xmlns="http://www.w3.org/2000/svg">
<path d="M355.547 138.086C371.262 129.013 378.28 111.75 371.223 99.5284C364.167 87.3062 345.707 84.7532 329.993 93.8261C314.279 102.899 307.261 120.162 314.317 132.384C321.374 144.606 339.833 147.159 355.547 138.086Z" fill="white"/>
<path d="M282.397 74.9069C282.446 72.4896 282.742 69.727 283.531 66.8657C280.621 66.0764 267.745 62.7217 261.48 61.8831C254.376 60.9457 237.158 58.0351 235.925 59.9098C234.692 61.7844 233.606 63.6097 240.266 66.175C246.926 68.7403 270.458 74.3149 270.458 74.3149C270.458 74.3149 276.526 74.0683 282.397 74.9069Z" fill="#FE6C6C"/>
<path d="M248.999 51.2765C254.129 55.3218 279.881 63.9551 283.976 65.3364C284.913 62.6724 286.294 60.6004 287.873 59.0218C283.778 57.0485 262.565 46.8366 254.031 44.8633C244.608 42.6926 243.424 46.8859 248.999 51.2765Z" fill="#FE6C6C"/>
<path d="M348.108 105C346.233 97.9948 343.471 85.6616 337.995 78.755C330.595 69.4311 308.543 57.9858 308.543 57.9858L272.579 35.9834L265.13 40.3247C265.13 40.3247 284.123 55.2232 289.353 57.6405C292.658 54.9765 296.013 54.1872 296.259 54.1379C296.654 54.0392 297.048 54.2859 297.147 54.6805C297.246 55.0752 296.999 55.4699 296.605 55.5685C296.506 55.5685 288.958 57.6405 286.245 66.1258C283.482 74.8083 284.765 82.9976 284.814 83.0469C284.913 83.4416 284.715 83.8363 284.321 83.9843C284.271 83.9843 284.173 84.0336 284.123 84.0336C283.778 84.0336 283.531 83.8363 283.433 83.4909C283.383 83.2936 282.545 80.383 282.446 76.1897C281.065 75.9923 274.306 75.203 270.409 75.8443C266.067 76.5843 244.114 76.4363 243.818 81.7149C243.522 86.9936 252.896 85.4149 259.704 85.5136C266.511 85.5629 281.213 87.0429 293.842 92.0255C306.471 97.0575 313.082 100.461 322.356 108.601C331.631 116.741 329.707 120.293 336.663 119.603C343.668 118.912 349.095 108.651 348.108 105ZM320.087 78.3603C319.939 78.5083 319.742 78.5576 319.594 78.5576C319.396 78.5576 319.199 78.459 319.051 78.311C312.687 71.4044 313.131 64.4978 313.131 64.2018C313.18 63.8071 313.526 63.5111 313.92 63.5111C314.315 63.5605 314.611 63.9058 314.611 64.3004C314.611 64.3991 314.266 70.8617 320.136 77.275C320.432 77.6203 320.432 78.1136 320.087 78.3603Z" fill="#FE6C6C"/>
<path d="M354.275 93.7521L363.254 84.5269V96.1201L354.275 93.7521Z" fill="#71B7C7"/>
<path d="M354.275 130.012L357.877 119.603L372.233 126.805L354.275 130.012Z" fill="#71B7C7"/>
<path d="M325.168 129.864L335.972 132.084L325.365 144.121L325.168 129.864Z" fill="#71B7C7"/>
<path d="M319.593 121.428L318.311 111.907L307.211 114.62L319.593 121.428Z" fill="#71B7C7"/>
<path d="M319.001 29.0768C318.903 36.2794 320.58 47.034 326.697 56.1112C332.814 65.1885 341.892 85.2669 341.892 85.2669C341.892 85.2669 331.926 92.8148 325.168 83.4909C318.36 74.167 311.552 59.0712 310.664 45.8993C310.023 36.3781 308.789 26.6595 313.427 23.7489C318.212 20.7889 319.051 27.4488 319.001 29.0768Z" fill="#FE6C6C"/>
<path d="M107.59 91.8193C107.356 91.4926 107.403 91.0725 107.73 90.8391C108.056 90.6057 108.477 90.6524 108.71 90.9791C108.803 91.1192 113.704 97.654 120.846 105.869C126.681 104.189 132.656 102.602 138.117 101.295C137.277 100.268 136.39 99.2411 135.503 98.2142C126.214 87.0115 119.259 77.0225 119.166 76.9292C118.932 76.6024 119.026 76.1823 119.352 75.9489C119.679 75.7155 120.099 75.8089 120.333 76.1356C120.473 76.369 128.875 88.3652 139.657 100.921C147.172 99.101 153.474 97.7474 156.554 97.1406C141.851 82.017 131.862 62.7858 131.162 61.6189C130.975 61.2922 131.068 60.8721 131.395 60.6387C131.722 60.452 132.142 60.5453 132.375 60.8721C132.422 60.9654 137.837 70.9544 146.472 82.6705C150.206 87.7117 165.517 108.157 170.838 102.042C174.105 98.3075 171.958 89.2521 170.371 84.0242C166.497 79.8232 162.483 74.8753 158.282 69.0873C149.319 56.8111 142.925 45.3751 142.878 45.235C142.691 44.9083 142.831 44.4882 143.158 44.3015C143.485 44.1148 143.905 44.2081 144.092 44.5816C153.847 62.7858 171.351 82.8572 171.351 82.8572C183.534 95.1801 191.796 101.808 191.796 88.4119C191.796 75.0154 175.599 51.2098 170.511 43.3679C160.896 28.6178 137.65 4.95223 104.462 14.0077C71.3211 23.0632 68.007 72.4014 67.867 77.7694C67.7269 83.1373 65.0663 82.7639 63.1525 81.9703C61.2387 81.2235 62.2656 78.5162 63.0125 75.9956C63.7593 73.4283 68.7538 63.3926 57.6446 55.7375C46.5353 48.0824 34.3057 61.9923 34.3057 61.9923L26.5106 61.3388L31.365 67.4536L24.0833 66.8001C24.0833 66.8001 27.8175 70.1609 29.1712 71.1411C43.5012 81.737 19.6023 91.1658 17.175 110.677C14.7478 130.188 38.3667 146.526 38.3667 146.526C42.381 143.585 45.6484 141.578 50.8296 137.703L49.4293 133.316C49.3359 132.942 49.5226 132.569 49.8961 132.429C50.2695 132.336 50.6429 132.522 50.7829 132.896L52.0432 136.957C56.8977 133.969 62.359 130.702 67.6802 127.528C69.9208 126.174 72.348 124.867 74.7752 123.607L73.655 118.239C73.5616 117.865 73.8417 117.492 74.2151 117.399C74.5885 117.305 74.962 117.585 75.0553 117.959L76.0822 122.953C86.538 117.679 97.2739 113.618 97.2739 113.618C97.2739 113.618 89.1053 101.902 91.2991 100.221C93.4463 98.5409 95.7802 100.081 99.1877 103.302C102.595 106.476 106.749 110.444 106.749 110.444C110.577 108.997 114.871 107.596 119.352 106.289C112.397 98.2142 107.636 91.866 107.59 91.8193ZM51.5765 72.028C49.8027 72.028 48.3557 70.581 48.3557 68.8073C48.3557 67.0335 49.8027 65.5865 51.5765 65.5865C53.3502 65.5865 54.7972 67.0335 54.7972 68.8073C54.7972 70.581 53.3502 72.028 51.5765 72.028ZM58.0647 66.8468L55.404 61.5255C55.2173 61.1988 55.3573 60.7787 55.7308 60.592C56.0575 60.4053 56.4776 60.5453 56.6643 60.9187L59.7917 65.7732C60.2585 66.8001 58.7181 68.1071 58.0647 66.8468Z" fill="#FE6C6C"/>
<path d="M51.4826 70.2075C52.2302 70.2075 52.8362 69.6015 52.8362 68.8539C52.8362 68.1063 52.2302 67.5002 51.4826 67.5002C50.735 67.5002 50.1289 68.1063 50.1289 68.8539C50.1289 69.6015 50.735 70.2075 51.4826 70.2075Z" fill="#324A58"/>
<path d="M55.5442 52.0499L61.5657 44.2547C61.8457 43.928 62.3125 43.8346 62.6859 44.1147L68.6607 48.7824C68.9874 49.0158 69.0341 49.4359 68.8474 49.8094L63.7128 58.8181C63.4794 59.2382 62.8726 59.3316 62.4992 59.0049L55.6376 53.1701C55.3109 52.8434 55.2642 52.3766 55.5442 52.0499Z" fill="#71B7C7"/>
<path d="M63.3397 58.6315C63.1529 58.4915 52.8839 50.0895 49.3364 47.9423C45.7889 45.7952 45.2287 47.5222 46.9091 49.1093C48.5428 50.6496 60.3523 59.0516 62.1727 59.9852C63.9931 60.872 64.9267 59.9385 63.3397 58.6315Z" fill="#324A58"/>
<path d="M56.5706 144.939C56.3373 144.939 56.1039 144.892 55.8238 144.799C53.2099 143.958 51.0627 138.31 50.876 137.704L52.1829 136.91C52.8364 139.011 54.7969 143.025 56.2906 143.492C56.6173 143.585 56.8974 143.538 57.2241 143.305C59.4647 141.671 59.3713 136.677 59.1379 134.903C59.0912 134.529 59.3246 134.203 59.6514 134.156C59.9781 134.063 60.3515 134.249 60.4916 134.576C60.865 135.463 62.0786 137.937 63.5723 138.497C64.0391 138.684 64.5058 138.637 64.9726 138.357C66.513 137.517 66.5597 133.036 66.2329 130.375C66.1862 130.002 66.4663 129.628 66.8397 129.582C67.2132 129.535 67.5866 129.815 67.6332 130.188C67.7266 130.982 68.5201 138.03 65.6728 139.571C64.8326 140.037 63.9924 140.084 63.1055 139.757C62.1253 139.384 61.2851 138.544 60.6316 137.657C60.5382 139.944 60.0248 142.931 58.0643 144.378C57.5976 144.752 57.0841 144.939 56.5706 144.939Z" fill="#FE6C6C"/>
<path d="M79.9101 130.608C79.4434 130.608 78.9299 130.468 78.5098 130.188C76.1292 128.741 74.9156 123.84 74.8223 123.327L76.1292 122.72C76.456 124.073 77.6696 128.041 79.2566 129.021C79.5834 129.208 79.9101 129.301 80.2369 129.208C83.551 128.414 83.0375 122.953 82.9909 122.907C82.9442 122.533 83.1776 122.206 83.551 122.16C83.9244 122.113 84.2512 122.3 84.3445 122.673C84.3445 122.673 84.9513 124.774 86.3983 125.52C87.0051 125.847 87.7053 125.894 88.4988 125.614C90.506 124.96 89.8058 119.872 89.7124 117.959C89.6658 116.978 91.0194 116.652 91.1128 117.819C91.2528 120.479 92.0463 125.941 88.9189 126.967C87.752 127.341 86.7251 127.294 85.7448 126.781C85.138 126.454 84.6713 126.034 84.2978 125.567C84.0178 127.574 83.1309 130.002 80.5169 130.655C80.3302 130.608 80.1435 130.608 79.9101 130.608Z" fill="#FE6C6C"/>
<path d="M287.882 92.7744C288.712 91.08 285.215 89.71 275.373 85.1675C265.567 80.625 262.358 79.0027 261.529 80.2645C260.7 81.5263 265.458 83.6173 273.426 87.619C281.393 91.6207 286.549 95.5503 287.882 92.7744Z" fill="#324A58"/>
<path d="M258.068 85.6361C259.366 84.2662 262.322 86.6095 266.612 89.061C270.902 91.5125 274.219 92.9907 273.101 94.649C271.984 96.2713 269.244 94.2164 264.305 91.2962C259.402 88.4121 256.806 86.97 258.068 85.6361Z" fill="#324A58"/>
<path d="M175.15 120.462C176.88 118.948 179.98 124.356 189.174 137.406C198.403 150.457 200.35 152.512 198.403 154.17C196.456 155.829 194.473 153.521 185.605 139.065C176.736 124.608 173.347 122.048 175.15 120.462Z" fill="#324A58"/>
<path d="M193.427 131.926C195.158 130.52 197.393 133.657 197.393 133.657C197.393 133.657 200.133 136.938 199.123 137.983C197.934 139.245 196.672 138.884 194.364 136.072C192.021 133.26 193.427 131.926 193.427 131.926Z" fill="#324A58"/>
<path d="M195.014 62.3469C220.142 63.4284 241.304 67.7907 255.833 74.7126L233.265 12.0189C225.586 20.1305 209.435 37.94 190.94 62.2027C192.346 62.2387 193.68 62.3108 195.014 62.3469Z" fill="#71B7C7"/>
<path d="M188.705 62.1666C188.741 62.1305 188.777 62.0584 188.813 62.0224C208.137 36.57 225.045 18.0755 232.544 10.1442L232.363 10C232.363 10 198.078 16.3811 173.203 28.4223C148.543 40.3554 121 64.1494 121 64.1494C121.18 64.5821 121.397 65.0147 121.613 65.5194C132.681 64.4739 164.478 61.77 188.705 62.1666Z" fill="#71B7C7"/>
<path d="M194.942 64.1495C193.211 64.0774 191.445 64.0053 189.606 63.9692C169.345 90.9719 161.522 116.821 159.179 126.158C161.63 124.247 183.153 107.592 202.405 95.2259C220.971 83.2929 250.389 77.5607 255.653 76.6233C241.376 69.6293 220.178 65.231 194.942 64.1495Z" fill="#71B7C7"/>
<path d="M122.551 67.2138C130.086 82.067 152.329 116.244 157.737 124.536C160.441 114.261 168.336 89.71 187.371 63.9691C163.902 63.6807 133.907 66.1683 122.551 67.2138Z" fill="#71B7C7"/>
<path d="M228.133 33.1719C228.133 33.1719 258.48 39.1698 266.966 41.0152C272.504 42.1687 274.589 42.9761 274.949 39.4581C275.308 36.0555 273.87 35.6518 267.721 34.6137C261.573 33.6333 255.244 32.9412 248.305 32.0762C241.365 31.2688 228.636 30 228.025 30C226.694 30 226.586 32.5952 228.133 33.1719Z" fill="#324A58"/>
<path d="M170.139 101.499C171.942 99.8044 173.312 103.662 182.505 115.054C190.4 124.824 193.032 126.987 191.157 128.61C189.282 130.196 187.696 128.574 179.657 116.641C171.653 104.707 168.877 102.653 170.139 101.499Z" fill="#324A58"/>
</svg>
